<?xml version="1.0" standalone="no"?>
<!DOCTYPE svg PUBLIC "-//W3C//DTD SVG 20010904//EN"
 "http://www.w3.org/TR/2001/REC-SVG-20010904/DTD/svg10.dtd">
<svg version="1.0" xmlns="http://www.w3.org/2000/svg"
 width="800.000000pt" height="800.000000pt" viewBox="0 0 800.000000 800.000000"
 preserveAspectRatio="xMidYMid meet">

<g transform="translate(0.000000,800.000000) scale(0.100000,-0.100000)"
fill="#000000" stroke="none">
<path d="M945 7633 c-76 -40 -115 -100 -115 -177 0 -102 110 -152 246 -111 69
20 106 61 112 124 6 62 -26 134 -72 162 -39 24 -128 25 -171 2z m119 -84 c20
-16 26 -29 26 -59 0 -30 -6 -43 -26 -59 -38 -30 -98 -28 -129 4 -34 33 -31 61
9 101 40 40 80 44 120 13z"/>
<path d="M4100 7603 c-73 -37 -112 -93 -113 -161 -1 -89 50 -132 156 -132 163
0 249 107 185 229 -47 91 -131 114 -228 64z m129 -79 c64 -54 26 -134 -63
-134 -55 0 -86 22 -86 61 0 40 15 65 48 83 40 22 67 19 101 -10z"/>
<path d="M1640 7374 c-54 -46 -177 -245 -336 -542 -37 -70 -40 -73 -69 -68
-78 15 -288 27 -355 21 -84 -7 -120 -25 -120 -58 0 -48 118 -230 276 -424 l83
-102 -73 -153 c-123 -256 -196 -467 -196 -564 0 -136 132 -118 489 68 85 44
166 84 180 88 31 8 44 0 191 -121 147 -121 275 -207 333 -224 98 -29 112 5
111 275 0 167 -12 349 -30 440 -4 22 15 48 113 160 224 258 343 422 343 474 0
43 -128 81 -412 121 -95 14 -183 27 -194 30 -18 4 -32 35 -83 190 -87 267
-161 415 -207 415 -7 0 -27 -12 -44 -26z m88 -425 c92 -270 101 -289 136 -304
17 -7 112 -27 211 -45 274 -48 285 -51 285 -60 0 -5 -57 -71 -127 -146 -71
-74 -158 -168 -195 -207 l-66 -72 5 -294 6 -294 -104 85 c-180 145 -267 198
-328 198 -37 0 -135 -38 -311 -123 -74 -36 -146 -68 -159 -72 -22 -7 -23 -5
-17 20 4 15 58 143 120 284 62 141 119 272 126 292 l13 37 -142 203 -143 204
38 3 c21 2 65 -1 99 -7 94 -17 165 -14 201 8 38 23 86 96 154 231 70 142 120
222 134 217 6 -2 35 -73 64 -158z"/>
<path d="M1478 6613 c-74 -78 -85 -99 -62 -124 29 -32 50 -22 108 52 57 72 66
95 44 117 -20 20 -33 14 -90 -45z"/>
<path d="M1773 6470 c-13 -5 -23 -12 -23 -16 0 -27 132 -170 148 -160 31 19
12 79 -46 153 -28 34 -41 38 -79 23z"/>
<path d="M1616 6345 c-18 -13 -14 -20 67 -112 46 -54 94 -106 105 -116 20 -18
21 -18 32 2 13 26 -13 74 -95 174 -57 68 -75 77 -109 52z"/>
<path d="M1537 6237 l-29 -23 65 -79 c115 -141 187 -201 187 -154 0 12 -127
198 -167 247 l-28 32 -28 -23z"/>
<path d="M3610 7321 c0 -22 21 -219 26 -242 l5 -26 -73 4 c-87 6 -93 11 -137
113 -17 42 -43 89 -56 105 l-24 30 -15 -37 c-9 -20 -25 -92 -36 -159 -11 -67
-21 -123 -22 -124 -2 -1 -19 -10 -38 -20 -64 -32 -160 -99 -160 -112 0 -7 15
-14 33 -17 17 -3 55 -9 82 -13 l50 -8 9 -83 c5 -52 12 -82 20 -82 6 0 45 30
85 67 l74 67 76 -27 c47 -17 79 -23 85 -17 8 8 -15 85 -49 162 -5 13 6 31 44
70 l51 53 0 -35 c0 -19 -6 -62 -13 -96 l-13 -60 106 -12 c926 -105 1656 -830
1765 -1752 100 -843 -340 -1654 -1100 -2030 -314 -156 -694 -230 -1028 -202
-507 44 -949 251 -1301 611 -61 61 -72 69 -85 57 -28 -24 -173 -93 -263 -125
-90 -31 -163 -65 -172 -79 -13 -21 246 -292 395 -412 488 -393 1081 -582 1714
-548 401 21 808 146 1142 349 38 23 71 43 75 45 6 4 -11 -67 -47 -190 l-15
-49 34 -41 c325 -395 948 -1142 954 -1143 6 -3 155 124 604 512 l106 92 -480
579 c-264 318 -485 584 -491 591 -9 8 -39 8 -127 -2 -63 -8 -116 -12 -118 -10
-2 2 29 38 68 82 339 369 560 850 631 1373 17 122 17 488 1 605 -83 589 -335
1094 -744 1490 -404 393 -891 623 -1458 690 -145 17 -170 18 -170 6z"/>
<path d="M351 7139 c-12 -19 -28 -56 -37 -84 -22 -68 -26 -71 -87 -79 -76 -8
-119 -25 -115 -44 2 -9 32 -35 68 -59 35 -24 68 -47 73 -52 5 -5 -7 -32 -27
-62 -20 -29 -35 -60 -34 -68 5 -26 58 -24 121 3 l57 26 52 -43 c63 -50 104
-77 118 -77 17 0 11 53 -14 127 l-24 71 65 52 c60 48 64 54 49 66 -10 7 -49
18 -87 24 -79 14 -79 13 -108 124 -11 44 -26 86 -35 94 -13 13 -17 11 -35 -19z"/>
<path d="M2355 7050 c-3 -5 -2 -10 4 -10 5 0 13 5 16 10 3 6 2 10 -4 10 -5 0
-13 -4 -16 -10z"/>
<path d="M3283 6307 c-45 -7 -85 -16 -89 -19 -3 -4 8 -25 25 -47 38 -48 59
-97 63 -144 l2 -36 125 6 126 6 -61 -64 c-58 -61 -139 -175 -217 -304 l-36
-61 -83 -24 c-142 -40 -305 -100 -352 -131 -69 -43 -65 -66 32 -159 43 -41
126 -109 185 -150 95 -67 106 -78 102 -100 -12 -68 -17 -430 -6 -500 16 -98
32 -124 74 -116 66 13 214 117 405 283 40 35 80 63 89 63 9 0 64 -27 122 -59
151 -84 381 -199 414 -207 26 -6 27 -5 27 37 0 52 -21 214 -51 395 l-22 131
73 114 c93 145 180 311 180 345 0 49 -130 88 -409 123 l-136 17 -57 103 c-64
116 -93 157 -152 219 -46 48 -45 48 77 27 177 -31 358 -115 476 -221 27 -25
65 -49 82 -54 59 -17 117 9 144 67 35 72 0 132 -135 233 -137 101 -297 171
-485 212 -114 25 -411 33 -532 15z m378 -630 c33 -62 67 -118 74 -126 9 -9 62
-18 152 -27 142 -14 265 -31 295 -40 17 -5 17 -7 2 -37 -9 -17 -44 -72 -77
-122 -33 -49 -77 -118 -98 -152 l-39 -63 10 -72 c5 -40 10 -99 10 -131 l0 -59
-37 23 c-21 12 -82 51 -135 86 -91 60 -98 66 -98 97 0 26 -13 48 -64 107 -35
41 -75 85 -89 98 -25 23 -27 23 -52 7 l-26 -17 35 -47 c41 -54 106 -160 105
-170 -2 -21 -324 -292 -346 -292 -17 0 -17 18 7 206 11 87 20 180 20 206 0 43
-3 49 -42 81 -24 19 -92 67 -152 107 -79 53 -105 75 -95 81 8 4 82 24 164 44
l150 36 54 85 c29 47 80 122 114 167 l60 81 18 -23 c10 -12 46 -73 80 -134z"/>
<path d="M3840 5401 c0 -11 50 -164 55 -170 8 -7 55 29 55 42 0 19 -50 121
-63 129 -16 11 -47 10 -47 -1z"/>
<path d="M3675 5358 c-11 -6 -22 -12 -24 -14 -2 -2 6 -15 16 -31 11 -15 48
-81 83 -145 l64 -117 28 15 c23 12 28 20 22 37 -19 63 -143 267 -162 267 -4 0
-16 -6 -27 -12z"/>
<path d="M2723 6159 c-17 -5 -43 -24 -58 -41 -25 -30 -27 -38 -23 -98 8 -102
59 -189 124 -210 74 -25 184 43 199 123 25 134 -113 264 -242 226z m125 -95
c31 -21 54 -70 46 -97 -11 -38 -45 -67 -79 -67 -45 0 -77 37 -83 98 -4 43 -1
51 19 66 30 20 68 21 97 0z"/>
<path d="M2545 5051 c-99 -25 -165 -100 -165 -188 0 -132 294 -168 357 -43 7
14 13 45 13 70 0 104 -104 186 -205 161z m86 -100 c52 -53 29 -118 -47 -128
-47 -6 -99 16 -106 45 -9 33 19 82 54 97 48 21 66 18 99 -14z"/>
<path d="M267 4763 c-14 -27 -32 -71 -41 -99 -17 -51 -17 -52 -67 -58 -118
-16 -128 -41 -34 -85 l66 -31 -7 -38 c-3 -20 -12 -65 -19 -99 -12 -60 -12 -61
12 -72 41 -19 57 -13 99 36 l42 48 56 -27 c31 -16 66 -28 77 -28 20 0 21 4 15
48 -3 26 -8 61 -11 77 -5 27 0 33 50 68 30 21 55 42 55 48 0 13 -37 26 -102
34 l-55 7 -33 86 c-35 94 -55 132 -70 132 -5 0 -20 -21 -33 -47z"/>
<path d="M1795 4780 c-56 -35 -162 -182 -251 -347 l-38 -71 -181 -4 c-181 -5
-238 -15 -249 -44 -13 -33 42 -104 201 -259 l164 -160 -57 -155 c-66 -182 -91
-291 -75 -332 22 -59 110 -28 328 116 73 47 141 86 152 86 10 0 79 -22 153
-49 225 -82 331 -102 365 -68 17 16 17 21 0 85 -10 37 -45 126 -77 197 -33 72
-60 136 -60 144 0 7 44 63 98 125 165 188 192 229 169 260 -20 26 -189 64
-350 78 -26 3 -30 10 -67 122 -64 188 -129 296 -179 296 -9 0 -29 -9 -46 -20z
m78 -396 l52 -139 93 -12 c107 -14 172 -30 172 -42 0 -4 -27 -39 -59 -77 -33
-38 -78 -92 -101 -121 l-41 -51 35 -105 c20 -57 36 -111 36 -119 0 -13 -19 -8
-98 22 -165 65 -177 67 -252 38 -90 -36 -130 -43 -130 -25 0 8 11 65 26 128
l25 114 -113 107 -113 107 100 3 100 3 65 111 c113 192 130 218 141 207 6 -6
34 -73 62 -149z"/>
<path d="M1812 4192 l-22 -17 67 -89 c38 -49 73 -91 80 -93 25 -8 26 45 2 92
-23 46 -85 125 -97 125 -4 0 -17 -8 -30 -18z"/>
<path d="M1722 4102 l-23 -18 60 -80 c74 -99 89 -113 102 -93 14 23 10 41 -19
90 -24 41 -86 119 -94 119 -2 0 -13 -8 -26 -18z"/>
<path d="M3007 3813 c-19 -37 -43 -92 -52 -121 -16 -48 -23 -56 -69 -79 -72
-37 -126 -72 -126 -82 0 -5 34 -17 76 -26 42 -10 78 -24 81 -31 3 -8 0 -44 -7
-80 -9 -56 -9 -69 3 -82 13 -12 22 -7 71 37 31 28 61 51 66 51 6 0 37 -13 70
-30 33 -16 64 -30 70 -30 14 0 12 34 -6 97 -10 34 -12 59 -7 64 5 5 39 29 74
52 85 56 88 74 12 82 -32 3 -76 9 -97 13 l-40 7 -28 100 c-40 138 -46 142 -91
58z"/>
<path d="M368 3650 c-42 -12 -77 -42 -98 -82 -45 -85 -34 -177 30 -240 32 -32
44 -38 80 -38 70 0 119 40 169 137 26 51 28 124 4 160 -18 28 -105 73 -138 72
-11 0 -32 -4 -47 -9z m86 -101 c59 -46 4 -175 -69 -161 -33 6 -65 47 -65 83 0
82 74 126 134 78z"/>
<path d="M6380 1350 c-189 -164 -346 -303 -348 -309 -4 -12 188 -240 245 -293
92 -82 241 -101 355 -45 69 35 302 232 339 287 65 96 75 217 27 322 -21 45
-247 329 -267 335 -3 1 -161 -133 -351 -297z"/>
</g>
</svg>
