<?xml version="1.0" encoding="UTF-8"?>
<svg xmlns="http://www.w3.org/2000/svg" xmlns:xlink="http://www.w3.org/1999/xlink" width="60px" height="60px" viewBox="0 0 60 60" version="1.1">
<g id="surface1">
<path style=" stroke:none;fill-rule:nonzero;fill:rgb(0%,0%,0%);fill-opacity:1;" d="M 7.085938 2.753906 C 6.515625 3.050781 6.226562 3.503906 6.226562 4.078125 C 6.226562 4.84375 7.050781 5.21875 8.070312 4.914062 C 8.585938 4.761719 8.863281 4.453125 8.910156 3.984375 C 8.953125 3.515625 8.714844 2.976562 8.371094 2.765625 C 8.078125 2.585938 7.410156 2.578125 7.085938 2.753906 Z M 7.980469 3.382812 C 8.128906 3.503906 8.175781 3.601562 8.175781 3.824219 C 8.175781 4.050781 8.128906 4.148438 7.980469 4.265625 C 7.695312 4.492188 7.246094 4.476562 7.011719 4.238281 C 6.757812 3.988281 6.78125 3.78125 7.078125 3.480469 C 7.378906 3.179688 7.679688 3.148438 7.980469 3.382812 Z M 7.980469 3.382812 "/>
<path style=" stroke:none;fill-rule:nonzero;fill:rgb(0%,0%,0%);fill-opacity:1;" d="M 30.75 2.976562 C 30.203125 3.253906 29.910156 3.675781 29.902344 4.183594 C 29.894531 4.851562 30.277344 5.175781 31.074219 5.175781 C 32.296875 5.175781 32.941406 4.371094 32.460938 3.457031 C 32.109375 2.773438 31.476562 2.601562 30.75 2.976562 Z M 31.71875 3.570312 C 32.199219 3.976562 31.914062 4.574219 31.246094 4.574219 C 30.832031 4.574219 30.601562 4.410156 30.601562 4.117188 C 30.601562 3.816406 30.710938 3.628906 30.960938 3.496094 C 31.261719 3.328125 31.460938 3.351562 31.71875 3.570312 Z M 31.71875 3.570312 "/>
<path style=" stroke:none;fill-rule:nonzero;fill:rgb(0%,0%,0%);fill-opacity:1;" d="M 12.300781 4.695312 C 11.894531 5.039062 10.972656 6.53125 9.78125 8.761719 C 9.503906 9.285156 9.480469 9.308594 9.261719 9.269531 C 8.675781 9.15625 7.101562 9.066406 6.601562 9.113281 C 5.96875 9.164062 5.699219 9.300781 5.699219 9.546875 C 5.699219 9.90625 6.585938 11.273438 7.769531 12.726562 L 8.390625 13.492188 L 7.84375 14.640625 C 6.921875 16.558594 6.375 18.140625 6.375 18.871094 C 6.375 19.890625 7.363281 19.753906 10.042969 18.359375 C 10.679688 18.03125 11.289062 17.730469 11.390625 17.699219 C 11.625 17.640625 11.722656 17.699219 12.824219 18.609375 C 13.925781 19.515625 14.886719 20.160156 15.324219 20.289062 C 16.058594 20.503906 16.164062 20.25 16.15625 18.226562 C 16.15625 16.972656 16.066406 15.609375 15.929688 14.925781 C 15.898438 14.761719 16.042969 14.566406 16.777344 13.726562 C 18.457031 11.789062 19.351562 10.558594 19.351562 10.171875 C 19.351562 9.847656 18.390625 9.5625 16.261719 9.261719 C 15.546875 9.15625 14.886719 9.058594 14.804688 9.039062 C 14.671875 9.007812 14.566406 8.773438 14.183594 7.613281 C 13.53125 5.609375 12.976562 4.5 12.628906 4.5 C 12.578125 4.5 12.425781 4.589844 12.300781 4.695312 Z M 12.960938 7.882812 C 13.648438 9.90625 13.71875 10.050781 13.980469 10.164062 C 14.109375 10.214844 14.820312 10.363281 15.5625 10.5 C 17.617188 10.859375 17.699219 10.882812 17.699219 10.949219 C 17.699219 10.988281 17.273438 11.484375 16.746094 12.046875 C 16.214844 12.601562 15.5625 13.304688 15.285156 13.597656 L 14.789062 14.136719 L 14.828125 16.34375 L 14.871094 18.546875 L 14.09375 17.910156 C 12.742188 16.824219 12.089844 16.425781 11.632812 16.425781 C 11.355469 16.425781 10.621094 16.710938 9.300781 17.347656 C 8.746094 17.617188 8.203125 17.859375 8.109375 17.886719 C 7.941406 17.941406 7.933594 17.925781 7.980469 17.738281 C 8.011719 17.625 8.414062 16.664062 8.878906 15.609375 C 9.34375 14.550781 9.773438 13.566406 9.824219 13.417969 L 9.921875 13.140625 L 8.859375 11.617188 L 7.785156 10.085938 L 8.070312 10.066406 C 8.226562 10.050781 8.558594 10.074219 8.8125 10.117188 C 9.515625 10.246094 10.050781 10.222656 10.320312 10.058594 C 10.605469 9.886719 10.964844 9.335938 11.476562 8.324219 C 12 7.261719 12.375 6.660156 12.480469 6.699219 C 12.523438 6.710938 12.742188 7.246094 12.960938 7.882812 Z M 12.960938 7.882812 "/>
<path style=" stroke:none;fill-rule:nonzero;fill:rgb(0%,0%,0%);fill-opacity:1;" d="M 11.085938 10.402344 C 10.53125 10.988281 10.449219 11.144531 10.621094 11.332031 C 10.835938 11.574219 10.996094 11.496094 11.429688 10.941406 C 11.859375 10.402344 11.925781 10.230469 11.761719 10.066406 C 11.609375 9.914062 11.511719 9.960938 11.085938 10.402344 Z M 11.085938 10.402344 "/>
<path style=" stroke:none;fill-rule:nonzero;fill:rgb(0%,0%,0%);fill-opacity:1;" d="M 13.296875 11.476562 C 13.199219 11.511719 13.125 11.566406 13.125 11.59375 C 13.125 11.796875 14.113281 12.871094 14.234375 12.796875 C 14.46875 12.652344 14.324219 12.203125 13.890625 11.648438 C 13.679688 11.390625 13.582031 11.363281 13.296875 11.476562 Z M 13.296875 11.476562 "/>
<path style=" stroke:none;fill-rule:nonzero;fill:rgb(0%,0%,0%);fill-opacity:1;" d="M 12.121094 12.414062 C 11.984375 12.511719 12.015625 12.5625 12.621094 13.253906 C 12.96875 13.65625 13.328125 14.046875 13.410156 14.121094 C 13.558594 14.257812 13.566406 14.257812 13.648438 14.109375 C 13.746094 13.914062 13.550781 13.550781 12.9375 12.800781 C 12.511719 12.292969 12.375 12.226562 12.121094 12.414062 Z M 12.121094 12.414062 "/>
<path style=" stroke:none;fill-rule:nonzero;fill:rgb(0%,0%,0%);fill-opacity:1;" d="M 11.527344 13.222656 L 11.308594 13.394531 L 11.796875 13.988281 C 12.660156 15.046875 13.199219 15.496094 13.199219 15.140625 C 13.199219 15.050781 12.246094 13.65625 11.949219 13.289062 L 11.738281 13.050781 Z M 11.527344 13.222656 "/>
<path style=" stroke:none;fill-rule:nonzero;fill:rgb(0%,0%,0%);fill-opacity:1;" d="M 27.074219 5.09375 C 27.074219 5.257812 27.234375 6.734375 27.269531 6.90625 L 27.308594 7.101562 L 26.761719 7.074219 C 26.109375 7.027344 26.0625 6.988281 25.734375 6.226562 C 25.605469 5.910156 25.410156 5.558594 25.3125 5.4375 L 25.132812 5.210938 L 25.019531 5.488281 C 24.953125 5.640625 24.832031 6.179688 24.75 6.683594 C 24.667969 7.183594 24.59375 7.605469 24.585938 7.613281 C 24.570312 7.621094 24.441406 7.6875 24.300781 7.761719 C 23.820312 8.003906 23.101562 8.503906 23.101562 8.601562 C 23.101562 8.65625 23.210938 8.707031 23.347656 8.730469 C 23.476562 8.753906 23.761719 8.796875 23.960938 8.828125 L 24.335938 8.886719 L 24.40625 9.511719 C 24.441406 9.898438 24.496094 10.125 24.554688 10.125 C 24.601562 10.125 24.890625 9.898438 25.191406 9.621094 L 25.746094 9.121094 L 26.316406 9.324219 C 26.671875 9.449219 26.910156 9.496094 26.953125 9.449219 C 27.015625 9.390625 26.84375 8.8125 26.585938 8.234375 C 26.550781 8.136719 26.632812 8.003906 26.917969 7.710938 L 27.300781 7.3125 L 27.300781 7.574219 C 27.300781 7.71875 27.253906 8.039062 27.203125 8.296875 L 27.105469 8.746094 L 27.898438 8.835938 C 34.84375 9.621094 40.320312 15.058594 41.136719 21.976562 C 41.886719 28.296875 38.585938 34.378906 32.886719 37.199219 C 30.53125 38.371094 27.683594 38.925781 25.175781 38.714844 C 21.375 38.386719 18.058594 36.832031 15.421875 34.132812 C 14.960938 33.675781 14.878906 33.613281 14.78125 33.703125 C 14.574219 33.886719 13.484375 34.402344 12.808594 34.640625 C 12.136719 34.875 11.585938 35.128906 11.519531 35.234375 C 11.421875 35.390625 13.363281 37.425781 14.484375 38.324219 C 18.140625 41.273438 22.589844 42.691406 27.335938 42.433594 C 30.34375 42.277344 33.398438 41.339844 35.902344 39.816406 C 36.1875 39.644531 36.433594 39.496094 36.464844 39.480469 C 36.511719 39.449219 36.382812 39.984375 36.113281 40.90625 L 36 41.273438 L 36.253906 41.578125 C 38.691406 44.542969 43.363281 50.144531 43.410156 50.152344 C 43.453125 50.175781 44.574219 49.222656 47.941406 46.3125 L 48.734375 45.621094 L 45.136719 41.28125 C 43.15625 38.894531 41.496094 36.898438 41.453125 36.847656 C 41.386719 36.789062 41.160156 36.789062 40.5 36.863281 C 40.027344 36.921875 39.628906 36.953125 39.613281 36.9375 C 39.601562 36.921875 39.832031 36.652344 40.125 36.324219 C 42.667969 33.554688 44.324219 29.949219 44.859375 26.023438 C 44.984375 25.109375 44.984375 22.363281 44.863281 21.488281 C 44.242188 17.070312 42.351562 13.28125 39.285156 10.3125 C 36.253906 7.363281 32.601562 5.640625 28.351562 5.136719 C 27.261719 5.011719 27.074219 5.003906 27.074219 5.09375 Z M 27.074219 5.09375 "/>
<path style=" stroke:none;fill-rule:nonzero;fill:rgb(0%,0%,0%);fill-opacity:1;" d="M 2.632812 6.457031 C 2.542969 6.601562 2.421875 6.878906 2.355469 7.085938 C 2.191406 7.597656 2.160156 7.621094 1.703125 7.679688 C 1.132812 7.738281 0.808594 7.867188 0.839844 8.011719 C 0.855469 8.078125 1.078125 8.273438 1.351562 8.453125 C 1.613281 8.632812 1.859375 8.804688 1.898438 8.84375 C 1.933594 8.878906 1.84375 9.082031 1.695312 9.308594 C 1.546875 9.523438 1.433594 9.757812 1.441406 9.816406 C 1.476562 10.011719 1.875 9.996094 2.347656 9.796875 L 2.773438 9.601562 L 3.164062 9.921875 C 3.636719 10.296875 3.945312 10.5 4.050781 10.5 C 4.175781 10.5 4.132812 10.101562 3.945312 9.546875 L 3.765625 9.015625 L 4.253906 8.625 C 4.703125 8.265625 4.734375 8.21875 4.621094 8.128906 C 4.546875 8.078125 4.253906 7.996094 3.96875 7.949219 C 3.375 7.84375 3.375 7.851562 3.15625 7.019531 C 3.074219 6.691406 2.960938 6.375 2.894531 6.316406 C 2.796875 6.21875 2.765625 6.234375 2.632812 6.457031 Z M 2.632812 6.457031 "/>
<path style=" stroke:none;fill-rule:nonzero;fill:rgb(0%,0%,0%);fill-opacity:1;" d="M 17.664062 7.125 C 17.640625 7.164062 17.648438 7.199219 17.691406 7.199219 C 17.730469 7.199219 17.789062 7.164062 17.8125 7.125 C 17.835938 7.078125 17.828125 7.050781 17.78125 7.050781 C 17.746094 7.050781 17.683594 7.078125 17.664062 7.125 Z M 17.664062 7.125 "/>
<path style=" stroke:none;fill-rule:nonzero;fill:rgb(0%,0%,0%);fill-opacity:1;" d="M 24.621094 12.699219 C 24.285156 12.75 23.984375 12.816406 23.953125 12.839844 C 23.933594 12.871094 24.015625 13.027344 24.140625 13.191406 C 24.425781 13.550781 24.585938 13.921875 24.613281 14.273438 L 24.628906 14.542969 L 25.566406 14.496094 L 26.511719 14.453125 L 26.054688 14.933594 C 25.621094 15.390625 25.011719 16.246094 24.425781 17.210938 L 24.15625 17.671875 L 23.535156 17.851562 C 22.46875 18.148438 21.246094 18.601562 20.894531 18.832031 C 20.378906 19.15625 20.40625 19.328125 21.136719 20.023438 C 21.457031 20.332031 22.078125 20.84375 22.523438 21.148438 C 23.234375 21.652344 23.316406 21.734375 23.289062 21.898438 C 23.199219 22.410156 23.160156 25.125 23.242188 25.648438 C 23.363281 26.386719 23.484375 26.578125 23.796875 26.519531 C 24.292969 26.421875 25.402344 25.640625 26.835938 24.398438 C 27.136719 24.136719 27.433594 23.925781 27.503906 23.925781 C 27.570312 23.925781 27.984375 24.128906 28.417969 24.367188 C 29.550781 24.996094 31.273438 25.859375 31.523438 25.921875 C 31.71875 25.964844 31.726562 25.957031 31.726562 25.640625 C 31.726562 25.253906 31.566406 24.039062 31.34375 22.679688 L 31.175781 21.699219 L 31.726562 20.84375 C 32.421875 19.753906 33.074219 18.511719 33.074219 18.253906 C 33.074219 17.886719 32.101562 17.59375 30.007812 17.332031 L 28.988281 17.203125 L 28.558594 16.433594 C 28.078125 15.5625 27.863281 15.253906 27.421875 14.789062 C 27.074219 14.429688 27.082031 14.429688 27.996094 14.585938 C 29.324219 14.820312 30.683594 15.449219 31.566406 16.246094 C 31.769531 16.433594 32.054688 16.613281 32.183594 16.648438 C 32.625 16.777344 33.058594 16.582031 33.261719 16.148438 C 33.523438 15.609375 33.261719 15.15625 32.25 14.398438 C 31.222656 13.640625 30.023438 13.117188 28.613281 12.808594 C 27.757812 12.621094 25.53125 12.5625 24.621094 12.699219 Z M 27.457031 17.421875 C 27.703125 17.886719 27.960938 18.308594 28.011719 18.367188 C 28.078125 18.433594 28.476562 18.503906 29.152344 18.570312 C 30.21875 18.675781 31.140625 18.800781 31.363281 18.871094 C 31.492188 18.90625 31.492188 18.921875 31.378906 19.148438 C 31.3125 19.273438 31.050781 19.6875 30.800781 20.0625 C 30.554688 20.429688 30.226562 20.949219 30.066406 21.203125 L 29.773438 21.675781 L 29.851562 22.214844 C 29.886719 22.515625 29.925781 22.957031 29.925781 23.199219 L 29.925781 23.640625 L 29.648438 23.46875 C 29.488281 23.378906 29.03125 23.085938 28.636719 22.824219 C 27.953125 22.371094 27.898438 22.328125 27.898438 22.09375 C 27.898438 21.898438 27.800781 21.734375 27.421875 21.292969 C 27.15625 20.984375 26.859375 20.65625 26.753906 20.558594 C 26.566406 20.386719 26.550781 20.386719 26.363281 20.503906 L 26.167969 20.632812 L 26.429688 20.984375 C 26.738281 21.390625 27.226562 22.183594 27.21875 22.261719 C 27.203125 22.417969 24.789062 24.449219 24.621094 24.449219 C 24.496094 24.449219 24.496094 24.316406 24.675781 22.90625 C 24.757812 22.253906 24.824219 21.554688 24.824219 21.359375 C 24.824219 21.039062 24.800781 20.992188 24.511719 20.753906 C 24.328125 20.609375 23.820312 20.25 23.371094 19.949219 C 22.777344 19.550781 22.582031 19.386719 22.65625 19.34375 C 22.71875 19.3125 23.273438 19.164062 23.886719 19.011719 L 25.011719 18.742188 L 25.417969 18.105469 C 25.636719 17.753906 26.015625 17.191406 26.273438 16.851562 L 26.722656 16.246094 L 26.859375 16.417969 C 26.933594 16.507812 27.203125 16.964844 27.457031 17.421875 Z M 27.457031 17.421875 "/>
<path style=" stroke:none;fill-rule:nonzero;fill:rgb(0%,0%,0%);fill-opacity:1;" d="M 28.800781 19.492188 C 28.800781 19.574219 29.175781 20.722656 29.210938 20.765625 C 29.273438 20.820312 29.625 20.550781 29.625 20.453125 C 29.625 20.308594 29.25 19.546875 29.152344 19.484375 C 29.03125 19.402344 28.800781 19.410156 28.800781 19.492188 Z M 28.800781 19.492188 "/>
<path style=" stroke:none;fill-rule:nonzero;fill:rgb(0%,0%,0%);fill-opacity:1;" d="M 27.5625 19.816406 C 27.480469 19.859375 27.398438 19.90625 27.382812 19.921875 C 27.367188 19.933594 27.425781 20.03125 27.503906 20.152344 C 27.585938 20.265625 27.863281 20.761719 28.125 21.238281 L 28.605469 22.117188 L 28.816406 22.003906 C 28.988281 21.914062 29.023438 21.855469 28.980469 21.726562 C 28.835938 21.253906 27.90625 19.726562 27.765625 19.726562 C 27.734375 19.726562 27.644531 19.769531 27.5625 19.816406 Z M 27.5625 19.816406 "/>
<path style=" stroke:none;fill-rule:nonzero;fill:rgb(0%,0%,0%);fill-opacity:1;" d="M 20.421875 13.808594 C 20.296875 13.84375 20.101562 13.988281 19.988281 14.113281 C 19.800781 14.339844 19.785156 14.398438 19.816406 14.851562 C 19.875 15.613281 20.257812 16.265625 20.746094 16.425781 C 21.300781 16.613281 22.125 16.101562 22.238281 15.503906 C 22.425781 14.496094 21.390625 13.523438 20.421875 13.808594 Z M 21.359375 14.519531 C 21.59375 14.675781 21.765625 15.046875 21.703125 15.246094 C 21.621094 15.53125 21.367188 15.75 21.113281 15.75 C 20.773438 15.75 20.535156 15.472656 20.488281 15.015625 C 20.460938 14.691406 20.484375 14.632812 20.632812 14.519531 C 20.859375 14.371094 21.140625 14.363281 21.359375 14.519531 Z M 21.359375 14.519531 "/>
<path style=" stroke:none;fill-rule:nonzero;fill:rgb(0%,0%,0%);fill-opacity:1;" d="M 19.085938 22.117188 C 18.34375 22.304688 17.851562 22.867188 17.851562 23.527344 C 17.851562 24.515625 20.054688 24.789062 20.527344 23.851562 C 20.578125 23.746094 20.625 23.511719 20.625 23.324219 C 20.625 22.546875 19.84375 21.929688 19.085938 22.117188 Z M 19.734375 22.867188 C 20.121094 23.265625 19.949219 23.753906 19.378906 23.828125 C 19.027344 23.871094 18.636719 23.707031 18.585938 23.488281 C 18.515625 23.242188 18.726562 22.875 18.988281 22.761719 C 19.351562 22.605469 19.484375 22.628906 19.734375 22.867188 Z M 19.734375 22.867188 "/>
<path style=" stroke:none;fill-rule:nonzero;fill:rgb(0%,0%,0%);fill-opacity:1;" d="M 2.003906 24.277344 C 1.898438 24.480469 1.761719 24.808594 1.695312 25.019531 C 1.566406 25.402344 1.566406 25.410156 1.191406 25.453125 C 0.308594 25.574219 0.234375 25.761719 0.9375 26.09375 L 1.433594 26.324219 L 1.378906 26.609375 C 1.359375 26.761719 1.289062 27.097656 1.238281 27.351562 C 1.148438 27.800781 1.148438 27.808594 1.328125 27.890625 C 1.636719 28.035156 1.753906 27.988281 2.070312 27.621094 L 2.386719 27.261719 L 2.804688 27.464844 C 3.039062 27.585938 3.300781 27.675781 3.382812 27.675781 C 3.53125 27.675781 3.539062 27.644531 3.496094 27.316406 C 3.472656 27.121094 3.433594 26.859375 3.414062 26.738281 C 3.375 26.535156 3.414062 26.488281 3.789062 26.226562 C 4.011719 26.070312 4.199219 25.914062 4.199219 25.867188 C 4.199219 25.769531 3.921875 25.671875 3.433594 25.613281 L 3.023438 25.558594 L 2.773438 24.914062 C 2.511719 24.210938 2.363281 23.925781 2.25 23.925781 C 2.210938 23.925781 2.101562 24.082031 2.003906 24.277344 Z M 2.003906 24.277344 "/>
<path style=" stroke:none;fill-rule:nonzero;fill:rgb(0%,0%,0%);fill-opacity:1;" d="M 13.460938 24.148438 C 13.042969 24.414062 12.246094 25.515625 11.578125 26.753906 L 11.296875 27.285156 L 9.9375 27.316406 C 8.578125 27.351562 8.152344 27.425781 8.070312 27.644531 C 7.972656 27.890625 8.386719 28.425781 9.578125 29.585938 L 10.808594 30.789062 L 10.378906 31.949219 C 9.886719 33.316406 9.699219 34.132812 9.816406 34.441406 C 9.984375 34.882812 10.640625 34.648438 12.277344 33.570312 C 12.824219 33.21875 13.335938 32.925781 13.417969 32.925781 C 13.492188 32.925781 14.011719 33.089844 14.566406 33.292969 C 16.253906 33.90625 17.046875 34.058594 17.300781 33.800781 C 17.429688 33.683594 17.429688 33.644531 17.300781 33.164062 C 17.226562 32.886719 16.964844 32.21875 16.726562 31.6875 C 16.476562 31.148438 16.273438 30.667969 16.273438 30.609375 C 16.273438 30.554688 16.605469 30.136719 17.011719 29.671875 C 18.246094 28.261719 18.449219 27.953125 18.277344 27.71875 C 18.128906 27.523438 16.859375 27.238281 15.652344 27.136719 C 15.457031 27.113281 15.425781 27.058594 15.148438 26.21875 C 14.671875 24.808594 14.183594 24 13.808594 24 C 13.738281 24 13.589844 24.066406 13.460938 24.148438 Z M 14.046875 27.121094 L 14.4375 28.164062 L 15.136719 28.253906 C 15.9375 28.359375 16.425781 28.476562 16.425781 28.566406 C 16.425781 28.597656 16.222656 28.859375 15.984375 29.144531 C 15.734375 29.429688 15.398438 29.835938 15.226562 30.050781 L 14.917969 30.433594 L 15.179688 31.222656 C 15.328125 31.648438 15.449219 32.054688 15.449219 32.113281 C 15.449219 32.210938 15.308594 32.175781 14.714844 31.949219 C 13.476562 31.460938 13.386719 31.449219 12.824219 31.664062 C 12.148438 31.933594 11.851562 31.988281 11.851562 31.851562 C 11.851562 31.792969 11.933594 31.363281 12.046875 30.890625 L 12.234375 30.039062 L 11.386719 29.234375 L 10.539062 28.433594 L 12.039062 28.386719 L 12.523438 27.554688 C 13.371094 26.113281 13.5 25.921875 13.582031 26.003906 C 13.628906 26.046875 13.835938 26.550781 14.046875 27.121094 Z M 14.046875 27.121094 "/>
<path style=" stroke:none;fill-rule:nonzero;fill:rgb(0%,0%,0%);fill-opacity:1;" d="M 13.589844 28.558594 L 13.425781 28.6875 L 13.925781 29.355469 C 14.210938 29.722656 14.476562 30.039062 14.527344 30.050781 C 14.714844 30.113281 14.722656 29.714844 14.542969 29.363281 C 14.371094 29.015625 13.90625 28.425781 13.816406 28.425781 C 13.785156 28.425781 13.6875 28.484375 13.589844 28.558594 Z M 13.589844 28.558594 "/>
<path style=" stroke:none;fill-rule:nonzero;fill:rgb(0%,0%,0%);fill-opacity:1;" d="M 12.914062 29.234375 L 12.742188 29.371094 L 13.191406 29.96875 C 13.746094 30.710938 13.859375 30.816406 13.957031 30.667969 C 14.0625 30.496094 14.03125 30.359375 13.816406 29.992188 C 13.636719 29.683594 13.171875 29.101562 13.109375 29.101562 C 13.09375 29.101562 13.011719 29.160156 12.914062 29.234375 Z M 12.914062 29.234375 "/>
<path style=" stroke:none;fill-rule:nonzero;fill:rgb(0%,0%,0%);fill-opacity:1;" d="M 22.550781 31.402344 C 22.410156 31.679688 22.230469 32.09375 22.164062 32.308594 C 22.042969 32.671875 21.988281 32.730469 21.644531 32.902344 C 21.105469 33.179688 20.699219 33.441406 20.699219 33.515625 C 20.699219 33.554688 20.953125 33.644531 21.269531 33.710938 C 21.585938 33.789062 21.855469 33.890625 21.878906 33.945312 C 21.898438 34.003906 21.878906 34.273438 21.824219 34.546875 C 21.757812 34.964844 21.757812 35.0625 21.847656 35.160156 C 21.945312 35.25 22.011719 35.210938 22.378906 34.882812 C 22.613281 34.671875 22.835938 34.5 22.875 34.5 C 22.921875 34.5 23.152344 34.597656 23.398438 34.726562 C 23.648438 34.84375 23.878906 34.949219 23.925781 34.949219 C 24.03125 34.949219 24.015625 34.695312 23.878906 34.222656 C 23.804688 33.96875 23.789062 33.78125 23.828125 33.742188 C 23.863281 33.703125 24.121094 33.523438 24.382812 33.351562 C 25.019531 32.933594 25.042969 32.796875 24.472656 32.738281 C 24.234375 32.714844 23.902344 32.671875 23.746094 32.640625 L 23.445312 32.585938 L 23.234375 31.835938 C 22.933594 30.800781 22.890625 30.773438 22.550781 31.402344 Z M 22.550781 31.402344 "/>
<path style=" stroke:none;fill-rule:nonzero;fill:rgb(0%,0%,0%);fill-opacity:1;" d="M 2.761719 32.625 C 2.445312 32.714844 2.183594 32.941406 2.023438 33.238281 C 1.6875 33.878906 1.769531 34.566406 2.25 35.039062 C 2.488281 35.28125 2.578125 35.324219 2.851562 35.324219 C 3.375 35.324219 3.742188 35.023438 4.117188 34.296875 C 4.3125 33.914062 4.328125 33.367188 4.148438 33.097656 C 4.011719 32.886719 3.359375 32.550781 3.113281 32.558594 C 3.03125 32.558594 2.871094 32.585938 2.761719 32.625 Z M 3.40625 33.382812 C 3.847656 33.726562 3.433594 34.695312 2.886719 34.589844 C 2.640625 34.546875 2.398438 34.238281 2.398438 33.96875 C 2.398438 33.351562 2.953125 33.023438 3.40625 33.382812 Z M 3.40625 33.382812 "/>
<path style=" stroke:none;fill-rule:nonzero;fill:rgb(0%,0%,0%);fill-opacity:1;" d="M 47.851562 49.875 C 46.433594 51.105469 45.253906 52.148438 45.238281 52.191406 C 45.210938 52.28125 46.648438 53.992188 47.078125 54.390625 C 47.765625 55.003906 48.886719 55.148438 49.738281 54.726562 C 50.257812 54.464844 52.003906 52.988281 52.28125 52.574219 C 52.769531 51.855469 52.84375 50.949219 52.484375 50.160156 C 52.328125 49.824219 50.632812 47.691406 50.484375 47.648438 C 50.460938 47.640625 49.273438 48.644531 47.851562 49.875 Z M 47.851562 49.875 "/>
</g>
</svg>
